<?xml version="1.0" encoding="utf-8"?>
<!-- Generator: Adobe Illustrator 17.0.0, SVG Export Plug-In . SVG Version: 6.00 Build 0)  -->
<!DOCTYPE svg PUBLIC "-//W3C//DTD SVG 1.1//EN" "http://www.w3.org/Graphics/SVG/1.1/DTD/svg11.dtd">
<svg version="1.1" id="Layer_1" xmlns="http://www.w3.org/2000/svg" xmlns:xlink="http://www.w3.org/1999/xlink" x="0px" y="0px"
	 width="1200px" height="1200px" viewBox="0 0 1200 1200" enable-background="new 0 0 1200 1200" xml:space="preserve">
<g>
	<g>
		<g>
			<polygon fill="#00A2B9" points="1150,474.297 984.97,187.621 765.17,314.113 764.934,60.477 434.148,60.79 434.371,313.821 
				215.112,187.621 50,474.297 268.401,600.017 50,725.703 215.112,1012.46 434.882,885.951 435.096,1139.523 765.916,1139.275 
				765.689,886.243 984.97,1012.46 1150,725.703 931.62,600.017 			"/>
			<path fill="#FFFFFF" d="M783.322,405.121H495.843c15.725-23.587,42.043-42.716,64.63-46.765
				c27.888,6.206,55.257-13.365,65.006-21.339c17.552-3.801,31.402,2.381,31.402,2.381l-4.865-5.353l7.764,1.9
				c-8.213-10.153-24.504-8.647-33.567-6.846c-21.038-28.609-68.635,3.333-68.635,3.333c-34.022,5.353-73.568,35.54-91.686,72.689
				h-49.197c18.117,78.985,85.934,138.858,168.749,145.211v94.923c-0.231,0.09-0.467,0.193-0.699,0.278
				c-9.483,2.004-56.196,13.602-61.816,46.306c-4.324,24.693,16.398,50.913,62.515,79.882v89.648
				c-33.833,7.142-60.739,33.31-68.391,66.984h173.549c-5.812-25.683-22.891-46.949-45.65-58.843
				c13.602-7.335,25.856-17.993,28.733-33.258c3.955-20.953-10.697-42.926-44.063-66.779V653.752
				c5.023-2.547,10.204-5.267,15.445-8.265c38.547-21.965,56.197-42.853,54.297-63.879c-1.497-16.484-14.527-29.707-40.16-40.327
				C720.935,520.792,768.592,469.3,783.322,405.121z M548.558,696.305c1.947-11.644,23.033-20.446,36.887-24.208v68.55
				C549.068,715.062,547.837,700.582,548.558,696.305z M648.093,831.41c-1.175,6.348-8.806,12.138-18.47,16.775v-45.873
				C648.187,818.684,648.74,828.168,648.093,831.41z M673.428,584.014c0.974,10.135-18.34,25.933-43.805,40.34v-65.745
				C669.624,570.096,673.184,581.385,673.428,584.014z"/>
		</g>
	</g>
</g>
</svg>
